HIERARCHY
ROOT root
{
	OFFSET	0	13.1	24.9
	CHANNELS 6  Xposition Yposition Zposition Xrotation Yrotation Zrotation
	JOINT spine_1
	{
		OFFSET	0	9.99999	0
		CHANNELS 3  Xrotation Yrotation Zrotation
		JOINT spine_2
		{
			OFFSET	0	112	-10
			CHANNELS 3  Xrotation Yrotation Zrotation
			JOINT spine_3
			{
				OFFSET	0	206.5	19.3
				CHANNELS 3  Xrotation Yrotation Zrotation
				JOINT spine_4
				{
					OFFSET	0	110.4	14.6
					CHANNELS 3  Xrotation Yrotation Zrotation
					JOINT neck_1
					{
						OFFSET	0	71.8	-50.3
						CHANNELS 3  Xrotation Yrotation Zrotation
						JOINT neck_2
						{
							OFFSET	0	86.2	-25.8
							CHANNELS 3  Xrotation Yrotation Zrotation
							JOINT head_ee
							{
								OFFSET	0	179.8	-8.7
								CHANNELS 3  Xrotation Yrotation Zrotation
								End Site
								{
									OFFSET	1	0	0
								}
							}
						}
					}
					JOINT left_clavicle
					{
						OFFSET	-43.2	22.4	-70.8
						CHANNELS 3  Xrotation Yrotation Zrotation
						JOINT left_shoulder
						{
							OFFSET	-93.9	-5.79999	48.7
							CHANNELS 3  Xrotation Yrotation Zrotation
							JOINT left_elbow
							{
								OFFSET	-291.4	-30.8	15.2
								CHANNELS 3  Xrotation Yrotation Zrotation
								JOINT left_lowarm_twist
								{
									OFFSET	-110.7	-3.89999	13.6
									CHANNELS 3  Xrotation Yrotation Zrotation
									JOINT left_hand
									{
										OFFSET	-110.7	-3.89999	13.6
										CHANNELS 3  Xrotation Yrotation Zrotation
										JOINT left_ee
										{
											OFFSET	-80.8	-5.10001	12.1
											CHANNELS 3  Xrotation Yrotation Zrotation
											End Site
											{
												OFFSET	1	0	0
											}
										}
									}
								}
							}
						}
					}
					JOINT right_clavicle
					{
						OFFSET	43.2	22.4	-70.8
						CHANNELS 3  Xrotation Yrotation Zrotation
						JOINT right_shoulder
						{
							OFFSET	93.9	-5.79999	48.7
							CHANNELS 3  Xrotation Yrotation Zrotation
							JOINT right_elbow
							{
								OFFSET	291.4	-30.8	15.2
								CHANNELS 3  Xrotation Yrotation Zrotation
								JOINT right_lowarm_twist
								{
									OFFSET	110.7	-3.89999	13.6
									CHANNELS 3  Xrotation Yrotation Zrotation
									JOINT right_hand
									{
										OFFSET	110.7	-3.89999	13.6
										CHANNELS 3  Xrotation Yrotation Zrotation
										JOINT right_ee
										{
											OFFSET	80.8	-5.10001	12.1
											CHANNELS 3  Xrotation Yrotation Zrotation
											End Site
											{
												OFFSET	1	0	0
											}
										}
									}
								}
							}
						}
					}
				}
			}
		}
	}
	JOINT left_hip
	{
		OFFSET	-82.8	-127.5	0.300001
		CHANNELS 3  Xrotation Yrotation Zrotation
		JOINT left_knee
		{
			OFFSET	-28.2	-396.7	2.2
			CHANNELS 3  Xrotation Yrotation Zrotation
			JOINT left_ankle
			{
				OFFSET	-11.7	-411.3	35.4
				CHANNELS 3  Xrotation Yrotation Zrotation
				JOINT left_toes
				{
					OFFSET	0	-60	-88.6
					CHANNELS 3  Xrotation Yrotation Zrotation
					JOINT left_foot_ee
					{
						OFFSET	-22.5	-16.5	-42.2
						CHANNELS 3  Xrotation Yrotation Zrotation
						End Site
						{
							OFFSET	1	0	0
						}
					}
				}
			}
		}
	}
	JOINT right_hip
	{
		OFFSET	82.8	-127.5	0.300001
		CHANNELS 3  Xrotation Yrotation Zrotation
		JOINT right_knee
		{
			OFFSET	28.2	-396.7	2.2
			CHANNELS 3  Xrotation Yrotation Zrotation
			JOINT right_ankle
			{
				OFFSET	11.7	-411.3	35.4
				CHANNELS 3  Xrotation Yrotation Zrotation
				JOINT right_toes
				{
					OFFSET	0	-60	-88.6
					CHANNELS 3  Xrotation Yrotation Zrotation
					JOINT right_foot_ee
					{
						OFFSET	22.5	-16.5	-42.2
						CHANNELS 3  Xrotation Yrotation Zrotation
						End Site
						{
							OFFSET	1	0	0
						}
					}
				}
			}
		}
	}
}
MOTION
Frames: 6
Frame Time: 0.02
1617.86 721.134 -1523.9 0.981558 42.3286 -1.44404 1.15412 0.527801 1.31686 1.15497 0.442944 1.34777 1.16574 0.178533 1.4074 1.1632 0.398544 1.36156 -5.39827 16.6204 -2.16733 -5.16729 32.2752 0.77674 -0.0 0.0 -0.0 -3.48649 22.2245 -2.32867 -26.0665 -6.31182 73.5189 1.01196 -26.6237 0.239444 7.98529 0.212147 -0.99715 0.761985 10.9121 9.40691 -0.0 0.0 -0.0 13.0401 24.2816 -25.9611 1.25904 18.0319 -64.5471 1.14628 29.5884 -0.302745 17.0042 -0.282571 2.1458 -0.520025 -16.9702 -3.72419 0.0 0.0 0.0 22.7097 17.8844 -16.6553 -56.9937 -1.88426 8.18598 36.0133 20.8239 -4.66127 -3.89377 0.0 0.0 -0.0 0.0 -0.0 3.2986 16.9227 -3.71362 -11.7467 -0.302683 -1.77416 29.9259 2.27838 3.9222 7.35512 -0.0 -0.0 0.0 0.0 0.0 
1597.79 720.307 -1531.86 1.55718 43.9436 -1.96193 1.27459 -0.217384 1.44369 1.2757 -0.3088 1.42694 1.26799 -0.572362 1.34311 1.26564 -0.353082 1.41663 -3.79093 15.0036 -0.0124613 -3.51801 27.4568 2.29681 -0.0 0.0 -0.0 -5.3017 23.6302 -4.53733 -24.2408 -7.70159 76.8297 0.852353 -22.8908 0.17257 8.79618 0.225869 -1.09982 0.831015 11.4229 10.0453 -0.0 0.0 -0.0 12.6416 22.4169 -25.219 -0.015246 18.1215 -64.1731 1.51114 36.8151 -0.502935 13.2118 -0.275006 1.66156 -0.00833233 -14.4513 -5.87215 0.0 0.0 0.0 22.1753 15.5833 -15.5165 -54.4016 -1.62674 7.88049 38.0102 21.809 -4.88319 -5.35473 0.0 0.0 -0.0 0.0 -0.0 2.28185 20.5078 -3.87394 -14.1199 -0.319333 -2.13788 34.4551 -4.07007 4.34682 7.13269 -0.0 -0.0 0.0 0.0 0.0 
1581.81 716.724 -1539.21 1.4619 44.0552 -1.325 1.42024 -0.0460143 1.29467 1.42117 -0.128297 1.28912 1.41831 -0.365792 1.24278 1.41619 -0.164945 1.28494 -4.56563 15.989 -0.929896 -4.29988 30.0793 1.69829 -0.0 0.0 -0.0 -6.40732 23.4229 -6.14582 -24.0775 -9.32964 78.8309 0.847097 -22.7641 0.170531 10.3571 0.248185 -1.29795 0.884271 12.2569 10.699 -0.0 0.0 -0.0 12.6174 21.6537 -25.229 0.187441 18.6642 -62.9918 1.56308 37.7482 -0.534403 11.0262 -0.256097 1.38305 -0.300353 -12.8565 -3.39631 0.0 0.0 0.0 23.7899 16.3155 -17.201 -54.3091 -1.61781 7.86938 38.1009 16.4278 -4.78034 -5.54615 0.0 0.0 -0.0 0.0 -0.0 0.662303 17.3676 -4.39992 -12.0935 -0.306055 -1.82726 34.2853 -5.2435 4.32862 7.51463 -0.0 -0.0 0.0 0.0 0.0 
1568.37 709.571 -1541.58 1.86116 42.7369 -1.61094 1.40542 0.0324741 1.16253 1.40617 -0.0415615 1.16224 1.40538 -0.257205 1.13419 1.40359 -0.0748658 1.16057 -4.13164 16.2973 0.644426 -3.85531 29.3975 3.25486 -0.0 0.0 -0.0 -7.46287 23.8167 -7.5117 -22.7564 -9.54001 81.5042 0.766826 -20.7999 0.14074 10.4073 0.248813 -1.30433 0.831052 12.4728 10.4364 -0.0 0.0 -0.0 12.6765 22.3539 -25.3053 0.883985 18.4973 -62.3145 1.72974 40.5885 -0.639696 10.2891 -0.247326 1.28931 0.500414 -10.6582 -7.6213 0.0 0.0 0.0 25.6361 15.0898 -17.2528 -49.6001 -1.18752 7.28559 34.2674 11.1563 -4.3466 -7.68749 0.0 0.0 -0.0 0.0 -0.0 -0.736282 18.9329 -3.88791 -11.6114 -0.30128 -1.75345 36.5227 -7.65609 4.54742 6.5681 -0.0 -0.0 0.0 0.0 0.0 
1552.16 705.53 -1552.26 1.13399 44.2801 -0.688214 1.54103 0.0350641 1.20896 1.54184 -0.0419303 1.20874 1.54099 -0.263433 1.18043 1.53905 -0.073714 1.20722 -3.88928 15.4046 -1.24609 -3.56825 29.1422 1.10102 -0.0 0.0 -0.0 -8.62835 23.1781 -9.41607 -21.9872 -10.5228 82.9022 0.787188 -21.3032 0.148054 10.8234 0.253804 -1.35725 0.902774 13.6164 11.316 -0.0 0.0 -0.0 12.9642 23.1328 -25.9003 1.44479 17.2274 -61.767 1.71964 40.4228 -0.633132 9.01954 -0.229393 1.12814 0.559039 -8.56837 -7.18727 0.0 0.0 0.0 25.1341 15.0128 -16.488 -43.9754 -0.738856 6.54563 31.6642 11.2937 -4.08095 -9.53281 0.0 0.0 -0.0 0.0 -0.0 -1.50278 20.8701 -3.64857 -11.8946 -0.304161 -1.79681 36.2804 -10.8388 4.54121 5.08248 -0.0 -0.0 0.0 0.0 0.0 
1541.62 702.518 -1558.19 1.02791 44.8316 -0.353591 1.57044 -0.132047 1.10225 1.57109 -0.201914 1.09161 1.56721 -0.398702 1.03607 1.56578 -0.230081 1.08603 -4.4686 15.0643 -0.918333 -4.22477 28.3519 1.53455 -0.0 0.0 -0.0 -8.86449 22.8611 -9.88334 -21.4229 -12.3063 83.6089 0.734294 -19.9887 0.129403 11.4561 0.260655 -1.43777 0.895089 16.217 12.1986 -0.0 0.0 -0.0 12.9053 23.2535 -25.752 2.74339 18.0784 -61.7124 1.69913 40.0839 -0.619883 8.42113 -0.219702 1.05231 0.74798 -6.7069 -7.69504 0.0 0.0 0.0 21.992 11.8169 -15.7784 -27.1632 0.142225 4.12719 24.2194 8.89747 -3.24204 -12.358 0.0 0.0 -0.0 0.0 -0.0 -2.25685 21.644 -3.89263 -11.8122 -0.303344 -1.78418 39.2751 -12.4911 4.83484 6.09066 -0.0 -0.0 0.0 0.0 0.0 
